<?xml version="1.0" encoding="utf-8"?>
<!-- Generator: Adobe Illustrator 26.0.3, SVG Export Plug-In . SVG Version: 6.00 Build 0)  -->
<svg version="1.1" id="Layer_1" xmlns="http://www.w3.org/2000/svg" xmlns:xlink="http://www.w3.org/1999/xlink" x="0px" y="0px"
	 viewBox="0 0 50 50" style="enable-background:new 0 0 50 50;" xml:space="preserve">
<style type="text/css">
	.st0{fill:#3DB765;}
	.st1{fill:#3875BA;}
	.st2{fill:#41B193;}
	.st3{fill:#7F8CC6;}
</style>
<g>
	<g>
		<g>
			<path class="st0" d="M22.6,22.4c-1.2,0-2.2,1-2.3,2.2c-0.1,1.2-0.2,2.4-0.4,3.5c-0.2,1.1-0.5,2.2-1.1,3.2
				c-0.5,0.9-1.3,1.5-2.4,1.4c-0.5,0-0.9-0.1-1.4-0.3c-1.7-0.6-3.2-1.6-4.6-2.7c-0.7-0.5-1.4-0.7-2.2-0.5c-0.8,0.3-1.4,0.8-1.5,1.7
				c-0.2,0.9,0.1,1.6,0.8,2.2c1.4,1.2,2.9,2.2,4.5,2.9c1.5,0.7,3,1.2,4.7,1.2c1.9,0,3.6-0.6,5-2c0.9-0.9,1.6-2.1,2-3.3
				c0.9-2.3,1.2-4.8,1.3-7.3C24.9,23.4,23.8,22.4,22.6,22.4z"/>
		</g>
	</g>
	<g>
		<g>
			<path class="st1" d="M36.3,20.2c0,3.5-2.9,6.4-6.4,6.3c-1.7,0-3.2-0.7-4.3-1.7c0,0,0,0,0-0.1c0-0.8-0.3-1.5-0.8-2.1
				c-0.3-0.3-0.6-0.5-0.9-0.7c-0.2-0.6-0.3-1.2-0.3-1.8c0-3.5,2.9-6.4,6.4-6.3C33.5,13.8,36.3,16.7,36.3,20.2z"/>
		</g>
	</g>
	<g>
		<g>
			<path class="st0" d="M21.5,20.8c0,0.4-0.1,0.8-0.1,1.2c-1,0.5-1.7,1.4-1.7,2.6c0,0.2,0,0.5-0.1,0.7c-1.2,1.1-2.8,1.8-4.5,1.8
				c-3.5,0-6.4-2.9-6.3-6.4c0-3.5,2.9-6.4,6.4-6.3C18.6,14.3,21.5,17.2,21.5,20.8z"/>
		</g>
	</g>
	<g>
		<g>
			<path class="st1" d="M42.1,38.5c0.2,0.7,0.5,1.3,0.7,2c1.2-1.4,2.3-2.9,3.2-4.6c-0.5-1.3-1-2.5-1.7-3.7c-0.9-1.7-1.9-3.2-3.3-4.5
				c-0.7-0.7-1.6-1-2.6-0.7c-2.4,0.5-4.8,0.9-7.1,1.4c-1.2,0.2-2.4,0.5-3.6,0.7c-0.8,0.1-1.4,0.5-1.8,1.2c-1.6,2.8-2.9,5.7-4,8.7
				c-1.1,3-1.9,6.1-2.4,9.2c1.5,0.3,3,0.5,4.5,0.5c0.5-3.1,1.4-6.1,2.5-9.1c0-0.1,0.1-0.2,0.1-0.3c0.1,0.7,0.2,1.4,0.3,2.1
				c0.2,2.1,0.3,4.1,0.5,6.2c0,0.3,0.1,0.6,0.1,0.9c5.8-0.7,11-3.4,14.8-7.4c-0.1-1-0.2-1.9-0.3-2.9l0,0C42,38.3,42,38.4,42.1,38.5z
				"/>
		</g>
	</g>
	<g>
		<g>
			<path class="st0" d="M11.6,36.7c0.1,0,0.2,0.1,0.3,0.1c-0.2,0.9-0.4,1.5-0.5,1.7c-0.3,1.8-0.6,3.5-0.7,5.3c-3.9-3-6.9-7.2-8.4-12
				C2.6,31,3,30.3,3.5,29.6C4.6,28,6.1,27,8,26.9c2.2-0.2,3.8,0.7,4.3,2.9c0,0.2,0.1,0.3,0.1,0.5c-0.5-0.3-1-0.7-1.5-1.1
				C10,28.4,9,28.2,8,28.5c-1.1,0.3-1.8,1.1-2,2.2c-0.2,1.1,0.1,2.1,1,2.9C8.4,34.9,10,35.9,11.6,36.7z"/>
		</g>
	</g>
	<g>
		<g>
			<path class="st2" d="M25,50c-0.2,0-0.4,0-0.6,0c-1.6,0-3.1-0.2-4.7-0.6c-3.6-0.8-7-2.4-10-4.6c-2-1.6-3.8-3.4-5.2-5.5
				c-1.5-2.1-2.6-4.4-3.4-6.9C0.4,30.1,0,27.6,0,25.1c0-3.4,0.7-6.7,2-9.7c1.3-3,3.1-5.6,5.4-7.9c2.3-2.3,5-4.1,7.9-5.4
				c3.1-1.3,6.4-2,9.7-2c3.4,0,6.6,0.7,9.7,2c3,1.3,5.6,3.1,7.9,5.4c2.3,2.3,4.1,5,5.4,7.9c1.3,3.1,2,6.4,2,9.7c0,4.1-1,8.2-3,11.9
				c-0.9,1.7-2,3.3-3.3,4.7c-0.2,0.2-0.4,0.4-0.6,0.6c-4,4.3-9.4,7-15.2,7.6C27,50,26,50,25,50z M25,1.5C12,1.5,1.4,12,1.4,25
				c0,2.4,0.3,4.7,1,7c1.4,4.7,4.3,8.7,8.1,11.7c2.8,2.1,6,3.6,9.4,4.4c1.4,0.3,2.9,0.5,4.4,0.5c0.2,0,0.4,0,0.6,0
				c0.9,0,1.9-0.1,2.8-0.2c5.5-0.6,10.5-3.2,14.3-7.2c0.2-0.2,0.4-0.4,0.5-0.6c1.2-1.4,2.2-2.9,3.1-4.4c1.8-3.4,2.8-7.3,2.8-11.2
				C48.6,12,38,1.5,25,1.5z"/>
		</g>
	</g>
	<g>
		<g>
			<g>
				<circle class="st3" cx="17.4" cy="7.6" r="1.6"/>
			</g>
			<g>
				<circle class="st3" cx="22.5" cy="7.6" r="1.6"/>
			</g>
			<g>
				<circle class="st3" cx="27.5" cy="7.6" r="1.6"/>
			</g>
			<g>
				<circle class="st3" cx="32.6" cy="7.6" r="1.6"/>
			</g>
		</g>
	</g>
</g>
</svg>
